# xmcd CD database file
#
# Track frame offsets:
#	150
#	25519
#	48356
#	69280
#	102713
#	124893
#	147988
#	171276
#	190372
#	219868
#
# Disc length: 3191 seconds
#
# Revision: 3
# Processed by: cddbd v1.5.1PL2 Copyright (c) Steve Scherf et al.
# Submitted via: CDex 1.50Beta7
#
DISCID=8e0c750a
DTITLE=Meshuggah - Nothing
DYEAR=2002
DGENRE=Metal
TTITLE0=Stengah
TTITLE1=Rational Gaze
TTITLE2=Perpetual Black Second
TTITLE3=Closed Eye Visual
TTITLE4=Glints Collide
TTITLE5=Organic Shadows
TTITLE6=Straws Pulled at Random
TTITLE7=Spasm
TTITLE8=Nebulous
TTITLE9=Obsidian
EXTD=zuuuuuu YEAR: 2002
EXTT0=
EXTT1=
EXTT2=
EXTT3=
EXTT4=
EXTT5=
EXTT6=
EXTT7=
EXTT8=
EXTT9=
PLAYORDER=
